G04 Layer: TopSolderMaskLayer*
G04 EasyEDA v6.4.25, 2021-09-25T13:37:10+12:00*
G04 999b5c9e67184b5eb4e2c979d079c973,63364df06a3448e09d62fec64a914f60,10*
G04 Gerber Generator version 0.2*
G04 Scale: 100 percent, Rotated: No, Reflected: No *
G04 Dimensions in millimeters *
G04 leading zeros omitted , absolute positions ,4 integer and 5 decimal *
%FSLAX45Y45*%
%MOMM*%

%ADD25C,0.6756*%
%ADD26C,2.0020*%
%ADD32C,1.6764*%

%LPD*%
D25*
X2537294Y4876800D02*
G01*
X2354643Y4876800D01*
X2537294Y4749800D02*
G01*
X2354643Y4749800D01*
X2537294Y4622800D02*
G01*
X2354643Y4622800D01*
X2537294Y4495800D02*
G01*
X2354643Y4495800D01*
X2537294Y4368800D02*
G01*
X2354643Y4368800D01*
X2537294Y4241800D02*
G01*
X2354643Y4241800D01*
X2537294Y4114800D02*
G01*
X2354643Y4114800D01*
X2537294Y3987800D02*
G01*
X2354643Y3987800D01*
X3487356Y4876800D02*
G01*
X3304705Y4876800D01*
X3487356Y4749800D02*
G01*
X3304705Y4749800D01*
X3487356Y4622800D02*
G01*
X3304705Y4622800D01*
X3487356Y4495800D02*
G01*
X3304705Y4495800D01*
X3487356Y4368800D02*
G01*
X3304705Y4368800D01*
X3487356Y4241800D02*
G01*
X3304705Y4241800D01*
X3487356Y4114800D02*
G01*
X3304705Y4114800D01*
X3487356Y3987800D02*
G01*
X3304705Y3987800D01*
D26*
G01*
X1522806Y4386706D03*
G36*
X1422654Y4794504D02*
G01*
X1422654Y4994910D01*
X1622805Y4994910D01*
X1622805Y4794504D01*
G37*
G36*
X3656329Y5374639D02*
G01*
X3656329Y5505704D01*
X3836670Y5505704D01*
X3836670Y5374639D01*
G37*
G36*
X3656329Y5670295D02*
G01*
X3656329Y5801360D01*
X3836670Y5801360D01*
X3836670Y5670295D01*
G37*
G36*
X3673856Y4164837D02*
G01*
X3673856Y4315968D01*
X3819143Y4315968D01*
X3819143Y4164837D01*
G37*
G36*
X3673856Y4370831D02*
G01*
X3673856Y4521962D01*
X3819143Y4521962D01*
X3819143Y4370831D01*
G37*
G36*
X3375659Y5660136D02*
G01*
X3375659Y5810504D01*
X3507740Y5810504D01*
X3507740Y5660136D01*
G37*
G36*
X3375659Y5340095D02*
G01*
X3375659Y5490463D01*
X3507740Y5490463D01*
X3507740Y5340095D01*
G37*
G36*
X3311397Y5133086D02*
G01*
X3311397Y5280913D01*
X3434841Y5280913D01*
X3434841Y5133086D01*
G37*
G36*
X3118358Y5133086D02*
G01*
X3118358Y5280913D01*
X3241802Y5280913D01*
X3241802Y5133086D01*
G37*
G36*
X2676397Y5133086D02*
G01*
X2676397Y5280913D01*
X2799841Y5280913D01*
X2799841Y5133086D01*
G37*
G36*
X2483358Y5133086D02*
G01*
X2483358Y5280913D01*
X2606802Y5280913D01*
X2606802Y5133086D01*
G37*
D32*
G01*
X3175000Y5600700D03*
G36*
X2837179Y5516879D02*
G01*
X2837179Y5684520D01*
X3004820Y5684520D01*
X3004820Y5516879D01*
G37*
G01*
X2667000Y5600700D03*
G01*
X2413000Y5600700D03*
G01*
X2159000Y5600700D03*
G01*
X1905000Y5600700D03*
G01*
X1651000Y5600700D03*
G01*
X1397000Y5600700D03*
G36*
X741679Y5504179D02*
G01*
X741679Y5671820D01*
X909320Y5671820D01*
X909320Y5504179D01*
G37*
G01*
X825500Y5334000D03*
M02*
