M48
METRIC,LZ,000.000
;FILE_FORMAT=3:3
;TYPE=PLATED
;Layer: Drill PTH
;EasyEDA v6.4.25, 2021-09-25T13:37:10+12:00
;999b5c9e67184b5eb4e2c979d079c973,63364df06a3448e09d62fec64a914f60,10
;Gerber Generator version 0.2
;Holesize 1 = 0.305 mm
T01C0.305
;Holesize 2 = 0.889 mm
T02C0.889
;Holesize 3 = 1.301 mm
T03C1.301
%
G05
G90
T01
X026416Y047498
X030353Y052070
X035560Y048768
X026416Y043688
X026416Y042418
X026416Y041148
X026416Y039878
X032131Y039878
X032131Y041148
X032131Y042418
X032131Y043688
X032131Y044958
X037465Y041021
T02
X031750Y056007
X029210Y056007
X026670Y056007
X024130Y056007
X021590Y056007
X019050Y056007
X016510Y056007
X013970Y056007
X008255Y055880
X008255Y053340
T03
X015228Y043867
X015228Y048947
M30
