G04 Layer: TopPasteMaskLayer*
G04 EasyEDA v6.4.25, 2021-09-25T13:37:10+12:00*
G04 999b5c9e67184b5eb4e2c979d079c973,63364df06a3448e09d62fec64a914f60,10*
G04 Gerber Generator version 0.2*
G04 Scale: 100 percent, Rotated: No, Reflected: No *
G04 Dimensions in millimeters *
G04 leading zeros omitted , absolute positions ,4 integer and 5 decimal *
%FSLAX45Y45*%
%MOMM*%

%ADD11C,0.5740*%
%ADD15R,1.2192X1.4000*%

%LPD*%
G36*
X3671468Y5500522D02*
G01*
X3661460Y5490514D01*
X3661460Y5389727D01*
X3671468Y5379770D01*
X3821531Y5379770D01*
X3831539Y5389727D01*
X3831539Y5490514D01*
X3821531Y5500522D01*
X3785412Y5500522D01*
X3775405Y5490514D01*
X3775405Y5469432D01*
X3765397Y5459425D01*
X3727602Y5459425D01*
X3717594Y5469432D01*
X3717594Y5490514D01*
X3707587Y5500522D01*
G37*
G36*
X3671468Y5796229D02*
G01*
X3661460Y5786272D01*
X3661460Y5685485D01*
X3671468Y5675477D01*
X3707587Y5675477D01*
X3717594Y5685485D01*
X3717594Y5706567D01*
X3727602Y5716574D01*
X3765397Y5716574D01*
X3775405Y5706567D01*
X3775405Y5685485D01*
X3785412Y5675477D01*
X3821531Y5675477D01*
X3831539Y5685485D01*
X3831539Y5786272D01*
X3821531Y5796229D01*
G37*
G36*
X3684524Y4510887D02*
G01*
X3679494Y4505909D01*
X3679494Y4390898D01*
X3684524Y4385919D01*
X3726484Y4386376D01*
X3726484Y4430420D01*
X3771493Y4430420D01*
X3771493Y4385411D01*
X3812489Y4385919D01*
X3817518Y4390898D01*
X3817518Y4505909D01*
X3812489Y4510887D01*
G37*
G36*
X3684524Y4295902D02*
G01*
X3679494Y4290923D01*
X3679494Y4175912D01*
X3684524Y4170883D01*
X3812489Y4170883D01*
X3817518Y4175912D01*
X3817518Y4290923D01*
X3812489Y4295902D01*
X3771493Y4295394D01*
X3771493Y4251401D01*
X3726484Y4251401D01*
X3726484Y4295902D01*
G37*
G36*
X3111601Y5275986D02*
G01*
X3106572Y5271008D01*
X3106572Y5142992D01*
X3111601Y5138013D01*
X3226612Y5138013D01*
X3231591Y5142992D01*
X3231083Y5185003D01*
X3187090Y5185003D01*
X3187090Y5230012D01*
X3232099Y5230012D01*
X3231591Y5271008D01*
X3226612Y5275986D01*
G37*
G36*
X3326587Y5275986D02*
G01*
X3321608Y5271008D01*
X3322116Y5230012D01*
X3366109Y5230012D01*
X3366109Y5185003D01*
X3321608Y5185003D01*
X3321608Y5142992D01*
X3326587Y5138013D01*
X3441598Y5138013D01*
X3446576Y5142992D01*
X3446576Y5271008D01*
X3441598Y5275986D01*
G37*
G36*
X2476601Y5275986D02*
G01*
X2471572Y5271008D01*
X2471572Y5142992D01*
X2476601Y5138013D01*
X2591612Y5138013D01*
X2596591Y5142992D01*
X2596083Y5185003D01*
X2552090Y5185003D01*
X2552090Y5230012D01*
X2597099Y5230012D01*
X2596591Y5271008D01*
X2591612Y5275986D01*
G37*
G36*
X2691587Y5275986D02*
G01*
X2686608Y5271008D01*
X2687116Y5230012D01*
X2731109Y5230012D01*
X2731109Y5185003D01*
X2686608Y5185003D01*
X2686608Y5142992D01*
X2691587Y5138013D01*
X2806598Y5138013D01*
X2811576Y5142992D01*
X2811576Y5271008D01*
X2806598Y5275986D01*
G37*
D11*
X2537294Y4876800D02*
G01*
X2354643Y4876800D01*
X2537294Y4749800D02*
G01*
X2354643Y4749800D01*
X2537294Y4622800D02*
G01*
X2354643Y4622800D01*
X2537294Y4495800D02*
G01*
X2354643Y4495800D01*
X2537294Y4368800D02*
G01*
X2354643Y4368800D01*
X2537294Y4241800D02*
G01*
X2354643Y4241800D01*
X2537294Y4114800D02*
G01*
X2354643Y4114800D01*
X2537294Y3987800D02*
G01*
X2354643Y3987800D01*
X3487356Y4876800D02*
G01*
X3304705Y4876800D01*
X3487356Y4749800D02*
G01*
X3304705Y4749800D01*
X3487356Y4622800D02*
G01*
X3304705Y4622800D01*
X3487356Y4495800D02*
G01*
X3304705Y4495800D01*
X3487356Y4368800D02*
G01*
X3304705Y4368800D01*
X3487356Y4241800D02*
G01*
X3304705Y4241800D01*
X3487356Y4114800D02*
G01*
X3304705Y4114800D01*
X3487356Y3987800D02*
G01*
X3304705Y3987800D01*
D15*
G01*
X3441700Y5735294D03*
G01*
X3441700Y5415305D03*
M02*
