G04 Layer: TopSilkLayer*
G04 EasyEDA v6.4.25, 2021-09-25T13:37:10+12:00*
G04 999b5c9e67184b5eb4e2c979d079c973,63364df06a3448e09d62fec64a914f60,10*
G04 Gerber Generator version 0.2*
G04 Scale: 100 percent, Rotated: No, Reflected: No *
G04 Dimensions in millimeters *
G04 leading zeros omitted , absolute positions ,4 integer and 5 decimal *
%FSLAX45Y45*%
%MOMM*%

%ADD10C,0.2540*%
%ADD21C,0.1524*%
%ADD22C,0.3000*%
%ADD23C,0.2032*%
%ADD24C,0.1778*%

%LPD*%
D23*
X1206500Y5840984D02*
G01*
X1206500Y5697728D01*
X1206500Y5840984D02*
G01*
X1267968Y5840984D01*
X1288287Y5834126D01*
X1295145Y5827268D01*
X1302004Y5813805D01*
X1302004Y5800089D01*
X1295145Y5786373D01*
X1288287Y5779515D01*
X1267968Y5772657D01*
X1206500Y5772657D01*
X1254252Y5772657D02*
G01*
X1302004Y5697728D01*
X1442465Y5820410D02*
G01*
X1428750Y5834126D01*
X1408429Y5840984D01*
X1380997Y5840984D01*
X1360678Y5834126D01*
X1346962Y5820410D01*
X1346962Y5806947D01*
X1353820Y5793231D01*
X1360678Y5786373D01*
X1374139Y5779515D01*
X1415034Y5766054D01*
X1428750Y5759195D01*
X1435607Y5752337D01*
X1442465Y5738621D01*
X1442465Y5718302D01*
X1428750Y5704586D01*
X1408429Y5697728D01*
X1380997Y5697728D01*
X1360678Y5704586D01*
X1346962Y5718302D01*
X1535176Y5840984D02*
G01*
X1535176Y5697728D01*
X1487423Y5840984D02*
G01*
X1582928Y5840984D01*
X1536700Y5498084D02*
G01*
X1536700Y5354828D01*
X1581657Y5498084D02*
G01*
X1581657Y5354828D01*
X1581657Y5498084D02*
G01*
X1677162Y5354828D01*
X1677162Y5498084D02*
G01*
X1677162Y5354828D01*
X1769871Y5498084D02*
G01*
X1769871Y5354828D01*
X1722120Y5498084D02*
G01*
X1817623Y5498084D01*
X1740915Y5840984D02*
G01*
X1815845Y5840984D01*
X1774952Y5786373D01*
X1795271Y5786373D01*
X1808987Y5779515D01*
X1815845Y5772657D01*
X1822704Y5752337D01*
X1822704Y5738621D01*
X1815845Y5718302D01*
X1802129Y5704586D01*
X1781810Y5697728D01*
X1761236Y5697728D01*
X1740915Y5704586D01*
X1734057Y5711444D01*
X1727200Y5725160D01*
X1874520Y5806947D02*
G01*
X1874520Y5813805D01*
X1881378Y5827268D01*
X1888236Y5834126D01*
X1901697Y5840984D01*
X1929129Y5840984D01*
X1942591Y5834126D01*
X1949450Y5827268D01*
X1956308Y5813805D01*
X1956308Y5800089D01*
X1949450Y5786373D01*
X1935734Y5766054D01*
X1867662Y5697728D01*
X1963165Y5697728D01*
X2008124Y5840984D02*
G01*
X2008124Y5697728D01*
X2103627Y5840984D02*
G01*
X2008124Y5745479D01*
X2042159Y5779515D02*
G01*
X2103627Y5697728D01*
X2330704Y5477510D02*
G01*
X2316988Y5491226D01*
X2296668Y5498084D01*
X2269236Y5498084D01*
X2248915Y5491226D01*
X2235200Y5477510D01*
X2235200Y5464047D01*
X2242058Y5450331D01*
X2248915Y5443473D01*
X2262377Y5436615D01*
X2303272Y5423154D01*
X2316988Y5416295D01*
X2323845Y5409437D01*
X2330704Y5395721D01*
X2330704Y5375402D01*
X2316988Y5361686D01*
X2296668Y5354828D01*
X2269236Y5354828D01*
X2248915Y5361686D01*
X2235200Y5375402D01*
X2375661Y5498084D02*
G01*
X2375661Y5354828D01*
X2375661Y5498084D02*
G01*
X2423413Y5498084D01*
X2443734Y5491226D01*
X2457450Y5477510D01*
X2464308Y5464047D01*
X2471165Y5443473D01*
X2471165Y5409437D01*
X2464308Y5388863D01*
X2457450Y5375402D01*
X2443734Y5361686D01*
X2423413Y5354828D01*
X2375661Y5354828D01*
X2570734Y5498084D02*
G01*
X2516124Y5354828D01*
X2570734Y5498084D02*
G01*
X2625090Y5354828D01*
X2536443Y5402579D02*
G01*
X2604770Y5402579D01*
X2597404Y5820410D02*
G01*
X2583688Y5834126D01*
X2563368Y5840984D01*
X2535936Y5840984D01*
X2515615Y5834126D01*
X2501900Y5820410D01*
X2501900Y5806947D01*
X2508758Y5793231D01*
X2515615Y5786373D01*
X2529077Y5779515D01*
X2569972Y5766054D01*
X2583688Y5759195D01*
X2590545Y5752337D01*
X2597404Y5738621D01*
X2597404Y5718302D01*
X2583688Y5704586D01*
X2563368Y5697728D01*
X2535936Y5697728D01*
X2515615Y5704586D01*
X2501900Y5718302D01*
X2744724Y5806947D02*
G01*
X2737865Y5820410D01*
X2724150Y5834126D01*
X2710434Y5840984D01*
X2683256Y5840984D01*
X2669540Y5834126D01*
X2656077Y5820410D01*
X2649220Y5806947D01*
X2642361Y5786373D01*
X2642361Y5752337D01*
X2649220Y5731763D01*
X2656077Y5718302D01*
X2669540Y5704586D01*
X2683256Y5697728D01*
X2710434Y5697728D01*
X2724150Y5704586D01*
X2737865Y5718302D01*
X2744724Y5731763D01*
X2789681Y5840984D02*
G01*
X2789681Y5697728D01*
X2789681Y5697728D02*
G01*
X2871470Y5697728D01*
X2832861Y5464047D02*
G01*
X2826004Y5477510D01*
X2812288Y5491226D01*
X2798572Y5498084D01*
X2771393Y5498084D01*
X2757677Y5491226D01*
X2744215Y5477510D01*
X2737358Y5464047D01*
X2730500Y5443473D01*
X2730500Y5409437D01*
X2737358Y5388863D01*
X2744215Y5375402D01*
X2757677Y5361686D01*
X2771393Y5354828D01*
X2798572Y5354828D01*
X2812288Y5361686D01*
X2826004Y5375402D01*
X2832861Y5388863D01*
X2832861Y5409437D01*
X2798572Y5409437D02*
G01*
X2832861Y5409437D01*
X2877820Y5498084D02*
G01*
X2877820Y5354828D01*
X2877820Y5498084D02*
G01*
X2973324Y5354828D01*
X2973324Y5498084D02*
G01*
X2973324Y5354828D01*
X3018281Y5498084D02*
G01*
X3018281Y5354828D01*
X3018281Y5498084D02*
G01*
X3066034Y5498084D01*
X3086354Y5491226D01*
X3100070Y5477510D01*
X3106927Y5464047D01*
X3113786Y5443473D01*
X3113786Y5409437D01*
X3106927Y5388863D01*
X3100070Y5375402D01*
X3086354Y5361686D01*
X3066034Y5354828D01*
X3018281Y5354828D01*
X2984500Y5840984D02*
G01*
X2984500Y5697728D01*
X2984500Y5840984D02*
G01*
X3045968Y5840984D01*
X3066288Y5834126D01*
X3073145Y5827268D01*
X3080004Y5813805D01*
X3080004Y5800089D01*
X3073145Y5786373D01*
X3066288Y5779515D01*
X3045968Y5772657D01*
X2984500Y5772657D02*
G01*
X3045968Y5772657D01*
X3066288Y5766054D01*
X3073145Y5759195D01*
X3080004Y5745479D01*
X3080004Y5725160D01*
X3073145Y5711444D01*
X3066288Y5704586D01*
X3045968Y5697728D01*
X2984500Y5697728D01*
X3179572Y5840984D02*
G01*
X3124961Y5697728D01*
X3179572Y5840984D02*
G01*
X3233927Y5697728D01*
X3145536Y5745479D02*
G01*
X3213608Y5745479D01*
X3326891Y5840984D02*
G01*
X3326891Y5697728D01*
X3279140Y5840984D02*
G01*
X3374390Y5840984D01*
X749300Y3935984D02*
G01*
X749300Y3792728D01*
X749300Y3935984D02*
G01*
X810768Y3935984D01*
X831087Y3929126D01*
X837945Y3922268D01*
X844804Y3908805D01*
X844804Y3895089D01*
X837945Y3881373D01*
X831087Y3874515D01*
X810768Y3867657D01*
X749300Y3867657D01*
X797052Y3867657D02*
G01*
X844804Y3792728D01*
X937513Y3935984D02*
G01*
X937513Y3792728D01*
X889762Y3935984D02*
G01*
X985265Y3935984D01*
X1132586Y3901947D02*
G01*
X1125728Y3915410D01*
X1112012Y3929126D01*
X1098295Y3935984D01*
X1071118Y3935984D01*
X1057402Y3929126D01*
X1043939Y3915410D01*
X1037081Y3901947D01*
X1030223Y3881373D01*
X1030223Y3847337D01*
X1037081Y3826763D01*
X1043939Y3813302D01*
X1057402Y3799586D01*
X1071118Y3792728D01*
X1098295Y3792728D01*
X1112012Y3799586D01*
X1125728Y3813302D01*
X1132586Y3826763D01*
X823468Y5223510D02*
G01*
X823468Y5100828D01*
X762000Y5162295D02*
G01*
X884681Y5162295D01*
X762000Y5721095D02*
G01*
X884681Y5721095D01*
X928115Y5280152D02*
G01*
X1071371Y5280152D01*
X928115Y5232400D02*
G01*
X928115Y5327904D01*
X1016762Y5372862D02*
G01*
X1016762Y5454650D01*
X1003045Y5454650D01*
X989584Y5447792D01*
X982726Y5440934D01*
X975868Y5427471D01*
X975868Y5406897D01*
X982726Y5393436D01*
X996442Y5379720D01*
X1016762Y5372862D01*
X1030478Y5372862D01*
X1050797Y5379720D01*
X1064513Y5393436D01*
X1071371Y5406897D01*
X1071371Y5427471D01*
X1064513Y5440934D01*
X1050797Y5454650D01*
X996442Y5574792D02*
G01*
X982726Y5567934D01*
X975868Y5547360D01*
X975868Y5527039D01*
X982726Y5506465D01*
X996442Y5499607D01*
X1009904Y5506465D01*
X1016762Y5520181D01*
X1023620Y5554218D01*
X1030478Y5567934D01*
X1043939Y5574792D01*
X1050797Y5574792D01*
X1064513Y5567934D01*
X1071371Y5547360D01*
X1071371Y5527039D01*
X1064513Y5506465D01*
X1050797Y5499607D01*
X928115Y5640070D02*
G01*
X1043939Y5640070D01*
X1064513Y5646928D01*
X1071371Y5660644D01*
X1071371Y5674105D01*
X975868Y5619750D02*
G01*
X975868Y5667502D01*
D24*
X1511889Y4666454D02*
G01*
X1506555Y4676868D01*
X1496141Y4687282D01*
X1485981Y4692616D01*
X1465153Y4692616D01*
X1454739Y4687282D01*
X1444325Y4676868D01*
X1438991Y4666454D01*
X1433911Y4650960D01*
X1433911Y4625052D01*
X1438991Y4609304D01*
X1444325Y4599144D01*
X1454739Y4588730D01*
X1465153Y4583396D01*
X1485981Y4583396D01*
X1496141Y4588730D01*
X1506555Y4599144D01*
X1511889Y4609304D01*
X1546179Y4671788D02*
G01*
X1556593Y4676868D01*
X1572087Y4692616D01*
X1572087Y4583396D01*
D21*
X3657600Y5335015D02*
G01*
X3657600Y5226050D01*
X3657600Y5335015D02*
G01*
X3704336Y5335015D01*
X3719829Y5329936D01*
X3725163Y5324602D01*
X3730243Y5314187D01*
X3730243Y5303773D01*
X3725163Y5293360D01*
X3719829Y5288279D01*
X3704336Y5283200D01*
X3657600Y5283200D01*
X3693922Y5283200D02*
G01*
X3730243Y5226050D01*
X3774947Y5335015D02*
G01*
X3832097Y5335015D01*
X3801109Y5293360D01*
X3816604Y5293360D01*
X3827018Y5288279D01*
X3832097Y5283200D01*
X3837431Y5267452D01*
X3837431Y5257037D01*
X3832097Y5241544D01*
X3821684Y5231129D01*
X3806190Y5226050D01*
X3790695Y5226050D01*
X3774947Y5231129D01*
X3769868Y5236210D01*
X3764534Y5246623D01*
X2716784Y4025900D02*
G01*
X2825750Y4025900D01*
X2716784Y4025900D02*
G01*
X2716784Y4062221D01*
X2721863Y4077970D01*
X2732277Y4088129D01*
X2742691Y4093463D01*
X2758440Y4098544D01*
X2784347Y4098544D01*
X2799841Y4093463D01*
X2810256Y4088129D01*
X2820670Y4077970D01*
X2825750Y4062221D01*
X2825750Y4025900D01*
X2732277Y4205731D02*
G01*
X2721863Y4195318D01*
X2716784Y4179570D01*
X2716784Y4158995D01*
X2721863Y4143247D01*
X2732277Y4132834D01*
X2742691Y4132834D01*
X2753106Y4138168D01*
X2758440Y4143247D01*
X2763520Y4153662D01*
X2773934Y4184904D01*
X2779013Y4195318D01*
X2784347Y4200397D01*
X2794761Y4205731D01*
X2810256Y4205731D01*
X2820670Y4195318D01*
X2825750Y4179570D01*
X2825750Y4158995D01*
X2820670Y4143247D01*
X2810256Y4132834D01*
X2716784Y4250436D02*
G01*
X2716784Y4307586D01*
X2758440Y4276344D01*
X2758440Y4291837D01*
X2763520Y4302252D01*
X2768600Y4307586D01*
X2784347Y4312665D01*
X2794761Y4312665D01*
X2810256Y4307586D01*
X2820670Y4297171D01*
X2825750Y4281423D01*
X2825750Y4265929D01*
X2820670Y4250436D01*
X2815590Y4245102D01*
X2805175Y4240021D01*
X2742691Y4352289D02*
G01*
X2737611Y4352289D01*
X2727197Y4357370D01*
X2721863Y4362450D01*
X2716784Y4372863D01*
X2716784Y4393692D01*
X2721863Y4404105D01*
X2727197Y4409439D01*
X2737611Y4414520D01*
X2748025Y4414520D01*
X2758440Y4409439D01*
X2773934Y4399026D01*
X2825750Y4346955D01*
X2825750Y4419600D01*
X2716784Y4464304D02*
G01*
X2716784Y4521454D01*
X2758440Y4490465D01*
X2758440Y4505960D01*
X2763520Y4516373D01*
X2768600Y4521454D01*
X2784347Y4526787D01*
X2794761Y4526787D01*
X2810256Y4521454D01*
X2820670Y4511039D01*
X2825750Y4495545D01*
X2825750Y4480052D01*
X2820670Y4464304D01*
X2815590Y4459223D01*
X2805175Y4453889D01*
X2737611Y4561078D02*
G01*
X2732277Y4571492D01*
X2716784Y4586986D01*
X2825750Y4586986D01*
X2732277Y4693920D02*
G01*
X2721863Y4683760D01*
X2716784Y4668012D01*
X2716784Y4647184D01*
X2721863Y4631689D01*
X2732277Y4621276D01*
X2742691Y4621276D01*
X2753106Y4626610D01*
X2758440Y4631689D01*
X2763520Y4642104D01*
X2773934Y4673345D01*
X2779013Y4683760D01*
X2784347Y4688839D01*
X2794761Y4693920D01*
X2810256Y4693920D01*
X2820670Y4683760D01*
X2825750Y4668012D01*
X2825750Y4647184D01*
X2820670Y4631689D01*
X2810256Y4621276D01*
X2716784Y4728210D02*
G01*
X2825750Y4728210D01*
X2716784Y4728210D02*
G01*
X2825750Y4801107D01*
X2716784Y4801107D02*
G01*
X2825750Y4801107D01*
X3722877Y4648707D02*
G01*
X3717543Y4659121D01*
X3707129Y4669536D01*
X3696970Y4674615D01*
X3676141Y4674615D01*
X3665727Y4669536D01*
X3655313Y4659121D01*
X3649979Y4648707D01*
X3644900Y4632960D01*
X3644900Y4607052D01*
X3649979Y4591557D01*
X3655313Y4581144D01*
X3665727Y4570729D01*
X3676141Y4565650D01*
X3696970Y4565650D01*
X3707129Y4570729D01*
X3717543Y4581144D01*
X3722877Y4591557D01*
X3762247Y4648707D02*
G01*
X3762247Y4653787D01*
X3767581Y4664202D01*
X3772661Y4669536D01*
X3783075Y4674615D01*
X3803904Y4674615D01*
X3814318Y4669536D01*
X3819397Y4664202D01*
X3824731Y4653787D01*
X3824731Y4643373D01*
X3819397Y4632960D01*
X3808984Y4617465D01*
X3757168Y4565650D01*
X3829811Y4565650D01*
X3200400Y5474715D02*
G01*
X3200400Y5365750D01*
X3200400Y5474715D02*
G01*
X3236722Y5474715D01*
X3252470Y5469636D01*
X3262629Y5459221D01*
X3267963Y5448807D01*
X3273043Y5433060D01*
X3273043Y5407152D01*
X3267963Y5391657D01*
X3262629Y5381244D01*
X3252470Y5370829D01*
X3236722Y5365750D01*
X3200400Y5365750D01*
X3307334Y5453887D02*
G01*
X3317747Y5459221D01*
X3333495Y5474715D01*
X3333495Y5365750D01*
X3492500Y5258815D02*
G01*
X3492500Y5149850D01*
X3492500Y5258815D02*
G01*
X3539236Y5258815D01*
X3554729Y5253736D01*
X3560063Y5248402D01*
X3565143Y5237987D01*
X3565143Y5227573D01*
X3560063Y5217160D01*
X3554729Y5212079D01*
X3539236Y5207000D01*
X3492500Y5207000D01*
X3528822Y5207000D02*
G01*
X3565143Y5149850D01*
X3599434Y5237987D02*
G01*
X3609847Y5243321D01*
X3625595Y5258815D01*
X3625595Y5149850D01*
X2247900Y5271515D02*
G01*
X2247900Y5162550D01*
X2247900Y5271515D02*
G01*
X2294636Y5271515D01*
X2310129Y5266436D01*
X2315463Y5261102D01*
X2320543Y5250687D01*
X2320543Y5240273D01*
X2315463Y5229860D01*
X2310129Y5224779D01*
X2294636Y5219700D01*
X2247900Y5219700D01*
X2284222Y5219700D02*
G01*
X2320543Y5162550D01*
X2360168Y5245607D02*
G01*
X2360168Y5250687D01*
X2365247Y5261102D01*
X2370581Y5266436D01*
X2380995Y5271515D01*
X2401570Y5271515D01*
X2411984Y5266436D01*
X2417318Y5261102D01*
X2422397Y5250687D01*
X2422397Y5240273D01*
X2417318Y5229860D01*
X2406904Y5214365D01*
X2354834Y5162550D01*
X2427731Y5162550D01*
X3638590Y5492879D02*
G01*
X3638590Y5356887D01*
X3854409Y5356887D01*
X3854409Y5492879D01*
X3638590Y5683120D02*
G01*
X3638590Y5819112D01*
X3854409Y5819112D01*
X3854409Y5683120D01*
X2588859Y4954920D02*
G01*
X3253140Y4954920D01*
X3253140Y3909679D01*
X2588859Y3909679D01*
X2588859Y4954920D01*
X3836860Y4162280D02*
G01*
X3836860Y4303280D01*
X3656139Y4303280D02*
G01*
X3656139Y4162280D01*
X3671379Y4147040D02*
G01*
X3821620Y4147040D01*
X3836860Y4524519D02*
G01*
X3836860Y4383519D01*
X3656139Y4383519D02*
G01*
X3656139Y4524519D01*
X3671379Y4539759D02*
G01*
X3821620Y4539759D01*
D10*
X3526701Y5440679D02*
G01*
X3526701Y5709920D01*
X3441700Y5524500D02*
G01*
X3401059Y5626100D01*
X3401059Y5626100D02*
G01*
X3482340Y5626100D01*
X3482340Y5626100D02*
G01*
X3441700Y5524500D01*
X3356698Y5725299D02*
G01*
X3356698Y5425300D01*
D21*
X3324219Y5115290D02*
G01*
X3452713Y5115290D01*
X3452713Y5298709D01*
X3324219Y5298709D01*
X3228980Y5115290D02*
G01*
X3100486Y5115290D01*
X3100486Y5298709D01*
X3228980Y5298709D01*
X2689219Y5115290D02*
G01*
X2817713Y5115290D01*
X2817713Y5298709D01*
X2689219Y5298709D01*
X2593980Y5115290D02*
G01*
X2465486Y5115290D01*
X2465486Y5298709D01*
X2593980Y5298709D01*
G75*
G01*
X3656140Y4162280D02*
G03*
X3671379Y4147040I15240J0D01*
G75*
G01*
X3821621Y4147040D02*
G03*
X3836860Y4162280I-1J15240D01*
G75*
G01*
X3656140Y4524520D02*
G02*
X3671379Y4539760I15240J0D01*
G75*
G01*
X3821621Y4539760D02*
G02*
X3836860Y4524520I-1J-15240D01*
D22*
G75*
G01
X2679116Y4876800D02*
G03X2679116Y4876800I-15011J0D01*
G75*
G01
X2460981Y4950739D02*
G03X2460981Y4950739I-15011J0D01*
M02*
