G04 Layer: TopLayer*
G04 EasyEDA v6.4.25, 2021-09-25T13:37:10+12:00*
G04 999b5c9e67184b5eb4e2c979d079c973,63364df06a3448e09d62fec64a914f60,10*
G04 Gerber Generator version 0.2*
G04 Scale: 100 percent, Rotated: No, Reflected: No *
G04 Dimensions in millimeters *
G04 leading zeros omitted , absolute positions ,4 integer and 5 decimal *
%FSLAX45Y45*%
%MOMM*%

%ADD10C,0.2540*%
%ADD11C,0.5740*%
%ADD12C,0.6200*%
%ADD13R,1.7010X1.2075*%
%ADD14R,1.3500X1.4100*%
%ADD15R,1.2192X1.4000*%
%ADD17C,1.9000*%
%ADD18R,1.9000X1.9000*%
%ADD19C,1.5748*%
%ADD20R,1.5748X1.5748*%

%LPD*%
D10*
X1522806Y4386706D02*
G01*
X825500Y5084013D01*
X825500Y5334000D01*
X3746500Y4447539D02*
G01*
X3684402Y4447539D01*
X3581400Y4343400D01*
X3581400Y3924300D01*
X3505200Y3848100D01*
X2061413Y3848100D01*
X1522806Y4386706D01*
X2738120Y5207000D02*
G01*
X2890520Y5054600D01*
X3683000Y5054600D01*
X3746500Y5118100D01*
X3746500Y5440171D01*
X3179978Y5207000D02*
G01*
X3035300Y5207000D01*
X2667000Y5600700D02*
G01*
X2667000Y5575300D01*
X3035300Y5207000D01*
X3746500Y5440121D02*
G01*
X3746500Y4446394D01*
X2544978Y5207000D02*
G01*
X2811779Y4953000D01*
X3619500Y4953000D01*
X3670300Y4889500D01*
X3670300Y4813300D01*
X3619500Y4749800D01*
X3395979Y4749800D01*
X2413000Y5600700D02*
G01*
X2544978Y5468721D01*
X2544978Y5207000D01*
X3553432Y4876800D02*
G01*
X3380762Y4876800D01*
X2445969Y4622800D02*
G01*
X2286000Y4622800D01*
X1651000Y5600700D01*
X3175000Y5600700D02*
G01*
X3309594Y5735294D01*
X3441700Y5735294D01*
X3746500Y5735878D02*
G01*
X3441700Y5431078D01*
X3441700Y5415305D01*
X3373221Y5207000D02*
G01*
X3513378Y5207000D01*
X3746500Y5440121D01*
X3396030Y4622800D02*
G01*
X3570097Y4622800D01*
X3746500Y4446396D01*
X2445969Y4495800D02*
G01*
X2286000Y4495800D01*
X1397000Y5600700D01*
X2445969Y4876800D02*
G01*
X2286000Y4876800D01*
X1905000Y5600700D01*
X3746500Y4240403D02*
G01*
X3746500Y4102100D01*
X3396030Y4495800D02*
G01*
X3213100Y4495800D01*
X3396030Y4368800D02*
G01*
X3213100Y4368800D01*
X3396030Y4241800D02*
G01*
X3213100Y4241800D01*
X3396030Y4114800D02*
G01*
X3213100Y4114800D01*
X3396030Y3987800D02*
G01*
X3213100Y3987800D01*
X2641600Y3987800D02*
G01*
X2445969Y3987800D01*
X2641600Y4114800D02*
G01*
X2445969Y4114800D01*
X2641600Y4241800D02*
G01*
X2445969Y4241800D01*
X2641600Y4368800D02*
G01*
X2445969Y4368800D01*
X2641600Y4749800D02*
G01*
X2445969Y4749800D01*
D11*
X2537294Y4876800D02*
G01*
X2354643Y4876800D01*
X2537294Y4749800D02*
G01*
X2354643Y4749800D01*
X2537294Y4622800D02*
G01*
X2354643Y4622800D01*
X2537294Y4495800D02*
G01*
X2354643Y4495800D01*
X2537294Y4368800D02*
G01*
X2354643Y4368800D01*
X2537294Y4241800D02*
G01*
X2354643Y4241800D01*
X2537294Y4114800D02*
G01*
X2354643Y4114800D01*
X2537294Y3987800D02*
G01*
X2354643Y3987800D01*
X3487356Y4876800D02*
G01*
X3304705Y4876800D01*
X3487356Y4749800D02*
G01*
X3304705Y4749800D01*
X3487356Y4622800D02*
G01*
X3304705Y4622800D01*
X3487356Y4495800D02*
G01*
X3304705Y4495800D01*
X3487356Y4368800D02*
G01*
X3304705Y4368800D01*
X3487356Y4241800D02*
G01*
X3304705Y4241800D01*
X3487356Y4114800D02*
G01*
X3304705Y4114800D01*
X3487356Y3987800D02*
G01*
X3304705Y3987800D01*
G36*
X3661450Y5500499D02*
G01*
X3831549Y5500499D01*
X3831549Y5379747D01*
X3661450Y5379747D01*
G37*
D13*
G01*
X3746500Y5735878D03*
G36*
X3678999Y4310900D02*
G01*
X3814000Y4310900D01*
X3814000Y4169900D01*
X3678999Y4169900D01*
G37*
D14*
G01*
X3746500Y4446396D03*
D15*
G01*
X3441700Y5735294D03*
G01*
X3441700Y5415305D03*
G36*
X3316599Y5138150D02*
G01*
X3316599Y5275849D01*
X3429853Y5275849D01*
X3429853Y5138150D01*
G37*
G36*
X3236600Y5138150D02*
G01*
X3236600Y5275849D01*
X3123346Y5275849D01*
X3123346Y5138150D01*
G37*
G36*
X2681599Y5138150D02*
G01*
X2681599Y5275849D01*
X2794853Y5275849D01*
X2794853Y5138150D01*
G37*
G36*
X2601600Y5138150D02*
G01*
X2601600Y5275849D01*
X2488346Y5275849D01*
X2488346Y5138150D01*
G37*
D17*
G01*
X1522806Y4386706D03*
D18*
G01*
X1522806Y4894706D03*
D19*
G01*
X3175000Y5600700D03*
D20*
G01*
X2921000Y5600700D03*
D19*
G01*
X2667000Y5600700D03*
G01*
X2413000Y5600700D03*
G01*
X2159000Y5600700D03*
G01*
X1905000Y5600700D03*
G01*
X1651000Y5600700D03*
G01*
X1397000Y5600700D03*
D20*
G01*
X825500Y5588000D03*
D19*
G01*
X825500Y5334000D03*
D12*
G01*
X2641600Y4749800D03*
G01*
X3035300Y5207000D03*
G01*
X3556000Y4876800D03*
G01*
X2641600Y4368800D03*
G01*
X2641600Y4241800D03*
G01*
X2641600Y4114800D03*
G01*
X2641600Y3987800D03*
G01*
X3213100Y3987800D03*
G01*
X3213100Y4114800D03*
G01*
X3213100Y4241800D03*
G01*
X3213100Y4368800D03*
G01*
X3213100Y4495800D03*
G01*
X3746500Y4102100D03*
M02*
