G04 Layer: BottomLayer*
G04 EasyEDA v6.4.25, 2021-09-25T13:37:10+12:00*
G04 999b5c9e67184b5eb4e2c979d079c973,63364df06a3448e09d62fec64a914f60,10*
G04 Gerber Generator version 0.2*
G04 Scale: 100 percent, Rotated: No, Reflected: No *
G04 Dimensions in millimeters *
G04 leading zeros omitted , absolute positions ,4 integer and 5 decimal *
%FSLAX45Y45*%
%MOMM*%

%ADD10C,0.2540*%
%ADD12C,0.6200*%
%ADD17C,1.9000*%
%ADD18R,1.9000X1.9000*%
%ADD19C,1.5748*%
%ADD20R,1.5748X1.5748*%

%LPD*%
G36*
X736092Y3775913D02*
G01*
X732180Y3776675D01*
X728878Y3778859D01*
X726694Y3782161D01*
X725932Y3786073D01*
X725932Y5262219D01*
X726744Y5266232D01*
X729030Y5269585D01*
X732485Y5271719D01*
X736498Y5272379D01*
X740460Y5271363D01*
X743712Y5268925D01*
X751535Y5260035D01*
X761796Y5250992D01*
X773176Y5243372D01*
X785469Y5237327D01*
X798423Y5232958D01*
X811834Y5230266D01*
X825500Y5229352D01*
X839165Y5230266D01*
X852576Y5232958D01*
X865530Y5237327D01*
X877824Y5243372D01*
X889203Y5250992D01*
X899464Y5260035D01*
X908507Y5270296D01*
X916127Y5281676D01*
X922172Y5293969D01*
X926541Y5306923D01*
X929233Y5320334D01*
X930148Y5334000D01*
X929233Y5347665D01*
X926541Y5361076D01*
X922172Y5374030D01*
X916127Y5386324D01*
X908507Y5397703D01*
X899464Y5407964D01*
X889203Y5417007D01*
X877824Y5424627D01*
X865530Y5430672D01*
X852576Y5435041D01*
X839165Y5437733D01*
X825500Y5438648D01*
X811834Y5437733D01*
X798423Y5435041D01*
X785469Y5430672D01*
X773176Y5424627D01*
X761796Y5417007D01*
X751535Y5407964D01*
X743712Y5399074D01*
X740460Y5396636D01*
X736498Y5395620D01*
X732485Y5396280D01*
X729030Y5398414D01*
X726744Y5401767D01*
X725932Y5405780D01*
X725932Y5475020D01*
X726643Y5478830D01*
X728726Y5482031D01*
X731875Y5484266D01*
X735634Y5485180D01*
X741019Y5484063D01*
X747318Y5483352D01*
X779780Y5483352D01*
X779780Y5542280D01*
X736092Y5542280D01*
X732180Y5543042D01*
X728878Y5545277D01*
X726694Y5548528D01*
X725932Y5552440D01*
X725932Y5623560D01*
X726694Y5627471D01*
X728878Y5630722D01*
X732180Y5632958D01*
X736092Y5633720D01*
X779780Y5633720D01*
X779780Y5692648D01*
X747318Y5692648D01*
X741019Y5691936D01*
X735634Y5690819D01*
X731875Y5691733D01*
X728726Y5693968D01*
X726643Y5697169D01*
X725932Y5700979D01*
X725932Y5863945D01*
X726694Y5867806D01*
X728878Y5871108D01*
X732180Y5873343D01*
X736092Y5874105D01*
X3863949Y5874105D01*
X3867810Y5873343D01*
X3871112Y5871108D01*
X3873296Y5867806D01*
X3874109Y5863945D01*
X3874109Y3786073D01*
X3873296Y3782161D01*
X3871112Y3778859D01*
X3867810Y3776675D01*
X3863949Y3775913D01*
G37*

%LPC*%
G36*
X1515364Y4266031D02*
G01*
X1530248Y4266031D01*
X1545031Y4267860D01*
X1559458Y4271518D01*
X1573326Y4276902D01*
X1586433Y4283913D01*
X1598574Y4292549D01*
X1609598Y4302556D01*
X1619300Y4313834D01*
X1627479Y4326280D01*
X1634134Y4339590D01*
X1639062Y4353610D01*
X1642262Y4368190D01*
X1643634Y4382973D01*
X1643176Y4397857D01*
X1640890Y4412589D01*
X1636826Y4426864D01*
X1631035Y4440580D01*
X1623568Y4453483D01*
X1614627Y4465370D01*
X1604264Y4476038D01*
X1592681Y4485386D01*
X1579981Y4493209D01*
X1566468Y4499457D01*
X1552295Y4503928D01*
X1537665Y4506671D01*
X1522831Y4507585D01*
X1507947Y4506671D01*
X1493316Y4503928D01*
X1479143Y4499457D01*
X1465630Y4493209D01*
X1452981Y4485386D01*
X1441348Y4476038D01*
X1430985Y4465370D01*
X1422044Y4453483D01*
X1414576Y4440580D01*
X1408785Y4426864D01*
X1404721Y4412589D01*
X1402435Y4397857D01*
X1401978Y4382973D01*
X1403350Y4368190D01*
X1406550Y4353610D01*
X1411478Y4339590D01*
X1418132Y4326280D01*
X1426362Y4313834D01*
X1436014Y4302556D01*
X1447038Y4292549D01*
X1459179Y4283913D01*
X1472285Y4276902D01*
X1486154Y4271518D01*
X1500581Y4267860D01*
G37*
G36*
X1428394Y4773777D02*
G01*
X1468983Y4773777D01*
X1468983Y4840884D01*
X1401927Y4840884D01*
X1401927Y4800295D01*
X1402638Y4793945D01*
X1404518Y4788509D01*
X1407617Y4783582D01*
X1411681Y4779518D01*
X1416608Y4776419D01*
X1422044Y4774488D01*
G37*
G36*
X1576679Y4773777D02*
G01*
X1617218Y4773777D01*
X1623568Y4774488D01*
X1629003Y4776419D01*
X1633931Y4779518D01*
X1637995Y4783582D01*
X1641093Y4788509D01*
X1643024Y4793945D01*
X1643735Y4800295D01*
X1643735Y4840884D01*
X1576679Y4840884D01*
G37*
G36*
X3558438Y4819954D02*
G01*
X3567988Y4821224D01*
X3577183Y4824018D01*
X3585819Y4828387D01*
X3593592Y4834128D01*
X3600246Y4841087D01*
X3605631Y4849063D01*
X3609644Y4857851D01*
X3612032Y4867198D01*
X3612896Y4876800D01*
X3612032Y4886401D01*
X3609644Y4895748D01*
X3605631Y4904536D01*
X3600246Y4912512D01*
X3593592Y4919472D01*
X3585819Y4925212D01*
X3577183Y4929581D01*
X3571341Y4931359D01*
X3568039Y4933086D01*
X3565601Y4935880D01*
X3512108Y5024932D01*
X3507079Y5031079D01*
X3501237Y5035854D01*
X3494532Y5039410D01*
X3487318Y5041595D01*
X3479292Y5042408D01*
X3207918Y5042408D01*
X3204006Y5043170D01*
X3200704Y5045405D01*
X3083560Y5162550D01*
X3081578Y5165394D01*
X3080664Y5168747D01*
X3080918Y5172202D01*
X3082340Y5175402D01*
X3084931Y5179263D01*
X3088944Y5188051D01*
X3091332Y5197398D01*
X3092196Y5207000D01*
X3091332Y5216601D01*
X3088944Y5225948D01*
X3084931Y5234736D01*
X3079546Y5242712D01*
X3072892Y5249672D01*
X3065119Y5255412D01*
X3056483Y5259781D01*
X3047288Y5262575D01*
X3037738Y5263845D01*
X3028086Y5263388D01*
X3018637Y5261356D01*
X3009696Y5257800D01*
X3001467Y5252720D01*
X2994253Y5246370D01*
X2988157Y5238851D01*
X2983484Y5230418D01*
X2980283Y5221325D01*
X2978658Y5211826D01*
X2978658Y5202174D01*
X2980283Y5192674D01*
X2983484Y5183581D01*
X2988157Y5175148D01*
X2994456Y5167426D01*
X2996133Y5164429D01*
X2996692Y5161026D01*
X2996692Y5156708D01*
X2997504Y5148681D01*
X2999689Y5141468D01*
X3003245Y5134762D01*
X3008376Y5128564D01*
X3160064Y4976876D01*
X3166262Y4971745D01*
X3172968Y4968189D01*
X3180181Y4966004D01*
X3188208Y4965192D01*
X3452164Y4965192D01*
X3455619Y4964582D01*
X3458616Y4962906D01*
X3460902Y4960264D01*
X3499358Y4896205D01*
X3500628Y4892852D01*
X3500628Y4889246D01*
X3499358Y4881626D01*
X3499358Y4871974D01*
X3500983Y4862474D01*
X3504184Y4853381D01*
X3508857Y4844948D01*
X3514953Y4837430D01*
X3522167Y4831080D01*
X3530396Y4826000D01*
X3539337Y4822444D01*
X3548786Y4820412D01*
G37*
G36*
X1401927Y4948580D02*
G01*
X1468983Y4948580D01*
X1468983Y5015636D01*
X1428394Y5015636D01*
X1422044Y5014925D01*
X1416608Y5012994D01*
X1411681Y5009896D01*
X1407617Y5005832D01*
X1404518Y5000904D01*
X1402638Y4995468D01*
X1401927Y4989118D01*
G37*
G36*
X1576679Y4948580D02*
G01*
X1643735Y4948580D01*
X1643735Y4989118D01*
X1643024Y4995468D01*
X1641093Y5000904D01*
X1637995Y5005832D01*
X1633931Y5009896D01*
X1629003Y5012994D01*
X1623568Y5014925D01*
X1617218Y5015636D01*
X1576679Y5015636D01*
G37*
G36*
X871219Y5483352D02*
G01*
X903681Y5483352D01*
X909980Y5484063D01*
X915466Y5485993D01*
X920343Y5489041D01*
X924458Y5493156D01*
X927506Y5498033D01*
X929436Y5503519D01*
X930148Y5509818D01*
X930148Y5542280D01*
X871219Y5542280D01*
G37*
G36*
X2966720Y5496052D02*
G01*
X2999181Y5496052D01*
X3005480Y5496763D01*
X3010966Y5498693D01*
X3015843Y5501741D01*
X3019958Y5505856D01*
X3023006Y5510733D01*
X3024936Y5516219D01*
X3025648Y5522518D01*
X3025648Y5554980D01*
X2966720Y5554980D01*
G37*
G36*
X2842818Y5496052D02*
G01*
X2875280Y5496052D01*
X2875280Y5554980D01*
X2816352Y5554980D01*
X2816352Y5522518D01*
X2817063Y5516219D01*
X2818993Y5510733D01*
X2822041Y5505856D01*
X2826156Y5501741D01*
X2831033Y5498693D01*
X2836519Y5496763D01*
G37*
G36*
X1651000Y5496052D02*
G01*
X1664665Y5496966D01*
X1678076Y5499658D01*
X1691030Y5504027D01*
X1703324Y5510072D01*
X1714703Y5517692D01*
X1724964Y5526735D01*
X1734007Y5536996D01*
X1741627Y5548376D01*
X1747672Y5560669D01*
X1752041Y5573623D01*
X1754733Y5587034D01*
X1755648Y5600700D01*
X1754733Y5614365D01*
X1752041Y5627776D01*
X1747672Y5640730D01*
X1741627Y5653024D01*
X1734007Y5664403D01*
X1724964Y5674664D01*
X1714703Y5683707D01*
X1703324Y5691327D01*
X1691030Y5697372D01*
X1678076Y5701741D01*
X1664665Y5704433D01*
X1651000Y5705348D01*
X1637334Y5704433D01*
X1623923Y5701741D01*
X1610969Y5697372D01*
X1598676Y5691327D01*
X1587296Y5683707D01*
X1577035Y5674664D01*
X1567992Y5664403D01*
X1560372Y5653024D01*
X1554327Y5640730D01*
X1549958Y5627776D01*
X1547266Y5614365D01*
X1546352Y5600700D01*
X1547266Y5587034D01*
X1549958Y5573623D01*
X1554327Y5560669D01*
X1560372Y5548376D01*
X1567992Y5536996D01*
X1577035Y5526735D01*
X1587296Y5517692D01*
X1598676Y5510072D01*
X1610969Y5504027D01*
X1623923Y5499658D01*
X1637334Y5496966D01*
G37*
G36*
X1397000Y5496052D02*
G01*
X1410665Y5496966D01*
X1424076Y5499658D01*
X1437030Y5504027D01*
X1449324Y5510072D01*
X1460703Y5517692D01*
X1470964Y5526735D01*
X1480007Y5536996D01*
X1487627Y5548376D01*
X1493672Y5560669D01*
X1498041Y5573623D01*
X1500733Y5587034D01*
X1501648Y5600700D01*
X1500733Y5614365D01*
X1498041Y5627776D01*
X1493672Y5640730D01*
X1487627Y5653024D01*
X1480007Y5664403D01*
X1470964Y5674664D01*
X1460703Y5683707D01*
X1449324Y5691327D01*
X1437030Y5697372D01*
X1424076Y5701741D01*
X1410665Y5704433D01*
X1397000Y5705348D01*
X1383334Y5704433D01*
X1369923Y5701741D01*
X1356969Y5697372D01*
X1344676Y5691327D01*
X1333296Y5683707D01*
X1323035Y5674664D01*
X1313992Y5664403D01*
X1306372Y5653024D01*
X1300327Y5640730D01*
X1295958Y5627776D01*
X1293266Y5614365D01*
X1292352Y5600700D01*
X1293266Y5587034D01*
X1295958Y5573623D01*
X1300327Y5560669D01*
X1306372Y5548376D01*
X1313992Y5536996D01*
X1323035Y5526735D01*
X1333296Y5517692D01*
X1344676Y5510072D01*
X1356969Y5504027D01*
X1369923Y5499658D01*
X1383334Y5496966D01*
G37*
G36*
X1905000Y5496052D02*
G01*
X1918665Y5496966D01*
X1932076Y5499658D01*
X1945030Y5504027D01*
X1957324Y5510072D01*
X1968703Y5517692D01*
X1978964Y5526735D01*
X1988007Y5536996D01*
X1995627Y5548376D01*
X2001672Y5560669D01*
X2006041Y5573623D01*
X2008733Y5587034D01*
X2009648Y5600700D01*
X2008733Y5614365D01*
X2006041Y5627776D01*
X2001672Y5640730D01*
X1995627Y5653024D01*
X1988007Y5664403D01*
X1978964Y5674664D01*
X1968703Y5683707D01*
X1957324Y5691327D01*
X1945030Y5697372D01*
X1932076Y5701741D01*
X1918665Y5704433D01*
X1905000Y5705348D01*
X1891334Y5704433D01*
X1877923Y5701741D01*
X1864969Y5697372D01*
X1852675Y5691327D01*
X1841296Y5683707D01*
X1831035Y5674664D01*
X1821992Y5664403D01*
X1814372Y5653024D01*
X1808327Y5640730D01*
X1803958Y5627776D01*
X1801266Y5614365D01*
X1800352Y5600700D01*
X1801266Y5587034D01*
X1803958Y5573623D01*
X1808327Y5560669D01*
X1814372Y5548376D01*
X1821992Y5536996D01*
X1831035Y5526735D01*
X1841296Y5517692D01*
X1852675Y5510072D01*
X1864969Y5504027D01*
X1877923Y5499658D01*
X1891334Y5496966D01*
G37*
G36*
X3175000Y5496052D02*
G01*
X3188665Y5496966D01*
X3202076Y5499658D01*
X3215030Y5504027D01*
X3227324Y5510072D01*
X3238703Y5517692D01*
X3248964Y5526735D01*
X3258007Y5536996D01*
X3265627Y5548376D01*
X3271672Y5560669D01*
X3276041Y5573623D01*
X3278733Y5587034D01*
X3279648Y5600700D01*
X3278733Y5614365D01*
X3276041Y5627776D01*
X3271672Y5640730D01*
X3265627Y5653024D01*
X3258007Y5664403D01*
X3248964Y5674664D01*
X3238703Y5683707D01*
X3227324Y5691327D01*
X3215030Y5697372D01*
X3202076Y5701741D01*
X3188665Y5704433D01*
X3175000Y5705348D01*
X3161334Y5704433D01*
X3147923Y5701741D01*
X3134969Y5697372D01*
X3122676Y5691327D01*
X3111296Y5683707D01*
X3101035Y5674664D01*
X3091992Y5664403D01*
X3084372Y5653024D01*
X3078327Y5640730D01*
X3073958Y5627776D01*
X3071266Y5614365D01*
X3070352Y5600700D01*
X3071266Y5587034D01*
X3073958Y5573623D01*
X3078327Y5560669D01*
X3084372Y5548376D01*
X3091992Y5536996D01*
X3101035Y5526735D01*
X3111296Y5517692D01*
X3122676Y5510072D01*
X3134969Y5504027D01*
X3147923Y5499658D01*
X3161334Y5496966D01*
G37*
G36*
X2413000Y5496052D02*
G01*
X2426665Y5496966D01*
X2440076Y5499658D01*
X2453030Y5504027D01*
X2465324Y5510072D01*
X2476703Y5517692D01*
X2486964Y5526735D01*
X2496007Y5536996D01*
X2503627Y5548376D01*
X2509672Y5560669D01*
X2514041Y5573623D01*
X2516733Y5587034D01*
X2517648Y5600700D01*
X2516733Y5614365D01*
X2514041Y5627776D01*
X2509672Y5640730D01*
X2503627Y5653024D01*
X2496007Y5664403D01*
X2486964Y5674664D01*
X2476703Y5683707D01*
X2465324Y5691327D01*
X2453030Y5697372D01*
X2440076Y5701741D01*
X2426665Y5704433D01*
X2413000Y5705348D01*
X2399334Y5704433D01*
X2385923Y5701741D01*
X2372969Y5697372D01*
X2360676Y5691327D01*
X2349296Y5683707D01*
X2339035Y5674664D01*
X2329992Y5664403D01*
X2322372Y5653024D01*
X2316327Y5640730D01*
X2311958Y5627776D01*
X2309266Y5614365D01*
X2308352Y5600700D01*
X2309266Y5587034D01*
X2311958Y5573623D01*
X2316327Y5560669D01*
X2322372Y5548376D01*
X2329992Y5536996D01*
X2339035Y5526735D01*
X2349296Y5517692D01*
X2360676Y5510072D01*
X2372969Y5504027D01*
X2385923Y5499658D01*
X2399334Y5496966D01*
G37*
G36*
X2667000Y5496052D02*
G01*
X2680665Y5496966D01*
X2694076Y5499658D01*
X2707030Y5504027D01*
X2719324Y5510072D01*
X2730703Y5517692D01*
X2740964Y5526735D01*
X2750007Y5536996D01*
X2757627Y5548376D01*
X2763672Y5560669D01*
X2768041Y5573623D01*
X2770733Y5587034D01*
X2771648Y5600700D01*
X2770733Y5614365D01*
X2768041Y5627776D01*
X2763672Y5640730D01*
X2757627Y5653024D01*
X2750007Y5664403D01*
X2740964Y5674664D01*
X2730703Y5683707D01*
X2719324Y5691327D01*
X2707030Y5697372D01*
X2694076Y5701741D01*
X2680665Y5704433D01*
X2667000Y5705348D01*
X2653334Y5704433D01*
X2639923Y5701741D01*
X2626969Y5697372D01*
X2614676Y5691327D01*
X2603296Y5683707D01*
X2593035Y5674664D01*
X2583992Y5664403D01*
X2576372Y5653024D01*
X2570327Y5640730D01*
X2565958Y5627776D01*
X2563266Y5614365D01*
X2562352Y5600700D01*
X2563266Y5587034D01*
X2565958Y5573623D01*
X2570327Y5560669D01*
X2576372Y5548376D01*
X2583992Y5536996D01*
X2593035Y5526735D01*
X2603296Y5517692D01*
X2614676Y5510072D01*
X2626969Y5504027D01*
X2639923Y5499658D01*
X2653334Y5496966D01*
G37*
G36*
X2159000Y5496052D02*
G01*
X2172665Y5496966D01*
X2186076Y5499658D01*
X2199030Y5504027D01*
X2211324Y5510072D01*
X2222703Y5517692D01*
X2232964Y5526735D01*
X2242007Y5536996D01*
X2249627Y5548376D01*
X2255672Y5560669D01*
X2260041Y5573623D01*
X2262733Y5587034D01*
X2263648Y5600700D01*
X2262733Y5614365D01*
X2260041Y5627776D01*
X2255672Y5640730D01*
X2249627Y5653024D01*
X2242007Y5664403D01*
X2232964Y5674664D01*
X2222703Y5683707D01*
X2211324Y5691327D01*
X2199030Y5697372D01*
X2186076Y5701741D01*
X2172665Y5704433D01*
X2159000Y5705348D01*
X2145334Y5704433D01*
X2131923Y5701741D01*
X2118969Y5697372D01*
X2106676Y5691327D01*
X2095296Y5683707D01*
X2085035Y5674664D01*
X2075992Y5664403D01*
X2068372Y5653024D01*
X2062327Y5640730D01*
X2057958Y5627776D01*
X2055266Y5614365D01*
X2054352Y5600700D01*
X2055266Y5587034D01*
X2057958Y5573623D01*
X2062327Y5560669D01*
X2068372Y5548376D01*
X2075992Y5536996D01*
X2085035Y5526735D01*
X2095296Y5517692D01*
X2106676Y5510072D01*
X2118969Y5504027D01*
X2131923Y5499658D01*
X2145334Y5496966D01*
G37*
G36*
X871219Y5633720D02*
G01*
X930148Y5633720D01*
X930148Y5666181D01*
X929436Y5672480D01*
X927506Y5677966D01*
X924458Y5682843D01*
X920343Y5686958D01*
X915466Y5690006D01*
X909980Y5691936D01*
X903681Y5692648D01*
X871219Y5692648D01*
G37*
G36*
X2816352Y5646420D02*
G01*
X2875280Y5646420D01*
X2875280Y5705348D01*
X2842818Y5705348D01*
X2836519Y5704636D01*
X2831033Y5702706D01*
X2826156Y5699658D01*
X2822041Y5695543D01*
X2818993Y5690666D01*
X2817063Y5685180D01*
X2816352Y5678881D01*
G37*
G36*
X2966720Y5646420D02*
G01*
X3025648Y5646420D01*
X3025648Y5678881D01*
X3024936Y5685180D01*
X3023006Y5690666D01*
X3019958Y5695543D01*
X3015843Y5699658D01*
X3010966Y5702706D01*
X3005480Y5704636D01*
X2999181Y5705348D01*
X2966720Y5705348D01*
G37*

%LPD*%
D10*
X3035300Y5207000D02*
G01*
X3035300Y5156200D01*
X3187700Y5003800D01*
X3479800Y5003800D01*
X3556000Y4876800D01*
D17*
G01*
X1522806Y4386706D03*
D18*
G01*
X1522806Y4894706D03*
D19*
G01*
X3175000Y5600700D03*
D20*
G01*
X2921000Y5600700D03*
D19*
G01*
X2667000Y5600700D03*
G01*
X2413000Y5600700D03*
G01*
X2159000Y5600700D03*
G01*
X1905000Y5600700D03*
G01*
X1651000Y5600700D03*
G01*
X1397000Y5600700D03*
D20*
G01*
X825500Y5588000D03*
D19*
G01*
X825500Y5334000D03*
D12*
G01*
X2641600Y4749800D03*
G01*
X3035300Y5207000D03*
G01*
X3556000Y4876800D03*
G01*
X2641600Y4368800D03*
G01*
X2641600Y4241800D03*
G01*
X2641600Y4114800D03*
G01*
X2641600Y3987800D03*
G01*
X3213100Y3987800D03*
G01*
X3213100Y4114800D03*
G01*
X3213100Y4241800D03*
G01*
X3213100Y4368800D03*
G01*
X3213100Y4495800D03*
G01*
X3746500Y4102100D03*
M02*
